<?xml version="1.0" encoding="UTF-8" standalone="no"?>
<!DOCTYPE svg PUBLIC "-//W3C//DTD SVG 1.1//EN" "http://www.w3.org/Graphics/SVG/1.1/DTD/svg11.dtd">
<svg width="100%" height="100%" viewBox="0 0 24 24" version="1.1" xmlns="http://www.w3.org/2000/svg" xmlns:xlink="http://www.w3.org/1999/xlink" xml:space="preserve" xmlns:serif="http://www.serif.com/" style="fill-rule:evenodd;clip-rule:evenodd;stroke-linecap:round;stroke-linejoin:round;stroke-miterlimit:1.5;">
    <g>
        <g transform="matrix(1.20779,0,0,1.20779,-2.27717,-0.994879)">
            <path d="M7.235,10.525C7.119,10.275 6.733,8.898 6.267,7.212C6.24,7.113 5.861,5.672 5.864,5.65" style="fill:none;stroke:currentColor;stroke-width:0.86px;"/>
        </g>
        <g transform="matrix(1.20779,0,0,1.20779,-2.27717,-0.994879)">
            <path d="M5.857,5.626C6.241,5.412 8.227,4.281 9.51,3.54C10.807,2.791 12.289,1.697 12.519,1.52" style="fill:none;stroke:currentColor;stroke-width:0.86px;"/>
        </g>
        <g transform="matrix(1.20779,0,0,1.20779,-2.27717,-0.994879)">
            <path d="M12.532,1.527C13.185,2.276 15.356,3.814 15.74,4.113" style="fill:none;stroke:currentColor;stroke-width:0.86px;"/>
        </g>
        <g transform="matrix(1.20779,0,0,1.20779,-2.27717,-0.994879)">
            <path d="M15.753,4.135C15.792,4.733 15.786,4.718 15.845,5.305" style="fill:none;stroke:currentColor;stroke-width:0.86px;"/>
        </g>
        <g transform="matrix(1.20779,0,0,1.20779,-2.27717,-0.994879)">
            <path d="M16.059,5.431C16.552,5.675 17.61,6.313 18.074,6.566" style="fill:none;stroke:currentColor;stroke-width:0.86px;"/>
        </g>
        <g transform="matrix(1.20779,0,0,1.20779,-2.27717,-0.994879)">
            <path d="M18.094,6.611C18.56,7.672 19.127,9.641 19.141,9.72" style="fill:none;stroke:currentColor;stroke-width:0.86px;"/>
        </g>
        <g transform="matrix(1.20779,0,0,1.20779,-2.27717,-0.994879)">
            <path d="M16.67,17.684C17.617,14.867 18.938,10.373 19.155,9.752" style="fill:none;stroke:currentColor;stroke-width:0.86px;"/>
        </g>
        <g transform="matrix(1.20779,0,0,1.20779,-2.27717,-0.994879)">
            <path d="M14.704,18.099C15.362,17.998 15.893,17.939 16.665,17.686" style="fill:none;stroke:currentColor;stroke-width:0.86px;"/>
        </g>
        <g transform="matrix(1.20779,0,0,1.20779,-2.27717,-0.994879)">
            <path d="M14.088,19.902C14.138,19.247 14.282,18.737 14.495,18.184" style="fill:none;stroke:currentColor;stroke-width:0.86px;"/>
        </g>
        <g transform="matrix(1.20779,0,0,1.20779,-2.27717,-0.994879)">
            <path d="M10.128,19.925C10.31,19.911 13.106,19.994 14.075,19.92" style="fill:none;stroke:currentColor;stroke-width:0.86px;"/>
        </g>
        <g transform="matrix(1.20779,0,0,1.20779,-2.27717,-0.994879)">
            <path d="M9.989,19.9C9.823,19.805 7.976,19.032 7.805,18.917" style="fill:none;stroke:currentColor;stroke-width:0.86px;"/>
        </g>
        <g transform="matrix(1.20779,0,0,1.20779,-2.27717,-0.994879)">
            <path d="M4.195,13.667C4.429,13.987 7.245,17.998 7.803,18.92" style="fill:none;stroke:currentColor;stroke-width:0.86px;"/>
        </g>
        <g transform="matrix(1.20779,0,0,1.20779,-2.27717,-0.994879)">
            <path d="M4.198,13.646C4.716,12.297 5.037,11.379 5.171,10.211" style="fill:none;stroke:currentColor;stroke-width:0.86px;"/>
        </g>
        <g transform="matrix(1.20779,0,0,1.20779,-2.27717,-0.994879)">
            <path d="M5.191,10.212C6.516,10.383 7.028,10.512 7.228,10.53" style="fill:none;stroke:currentColor;stroke-width:0.86px;"/>
        </g>
    </g>
    <g>
        <g transform="matrix(1.20779,0,0,1.20779,-2.27717,-0.994879)">
            <path d="M7.371,16.136C7.594,15.828 8.064,15.351 8.358,15.048" style="fill:none;stroke:currentColor;stroke-width:0.52px;"/>
        </g>
        <g transform="matrix(1.20779,0,0,1.20779,-2.27717,-0.994879)">
            <path d="M8.377,15.031C9.443,14.144 9.44,14.162 10.591,13.407C12.348,12.252 12.307,12.217 12.475,12.15" style="fill:none;stroke:currentColor;stroke-width:0.52px;"/>
        </g>
        <g transform="matrix(1.20779,0,0,1.20779,-2.27717,-0.994879)">
            <path d="M12.438,12.177C12.702,12.348 13.016,12.531 13.598,12.646" style="fill:none;stroke:currentColor;stroke-width:0.52px;"/>
        </g>
        <g transform="matrix(1.20779,0,0,1.20779,-2.27717,-0.994879)">
            <path d="M12.575,14.531C12.759,13.828 13.066,13.32 13.611,12.739" style="fill:none;stroke:currentColor;stroke-width:0.52px;"/>
        </g>
        <g transform="matrix(1.20779,0,0,1.20779,-2.27717,-0.994879)">
            <path d="M9.221,16.926C10.22,15.991 11.532,15.091 12.612,14.466" style="fill:none;stroke:currentColor;stroke-width:0.52px;"/>
        </g>
        <g transform="matrix(1.20779,0,0,1.20779,-2.27717,-0.994879)">
            <path d="M7.373,16.165C7.825,16.255 9.236,16.926 9.176,16.914" style="fill:none;stroke:currentColor;stroke-width:0.52px;"/>
        </g>
        <g transform="matrix(1.20779,0,0,1.20779,-2.27717,-0.994879)">
            <path d="M12.387,7.182C12.896,6.928 13.019,6.884 13.449,6.717" style="fill:none;stroke:currentColor;stroke-width:0.52px;"/>
        </g>
        <g transform="matrix(1.20779,0,0,1.20779,-2.27717,-0.994879)">
            <path d="M13.254,5.977C13.838,5.736 14.963,5.376 15.796,5.223" style="fill:none;stroke:currentColor;stroke-width:0.52px;"/>
        </g>
        <g transform="matrix(1.20779,0,0,1.20779,-2.27717,-0.994879)">
            <path d="M15.427,7.754C15.416,6.792 15.522,6.256 15.73,5.303" style="fill:none;stroke:currentColor;stroke-width:0.52px;"/>
        </g>
        <g transform="matrix(1.20779,0,0,1.20779,-2.27717,-0.994879)">
            <path d="M12.516,7.207C13.409,7.379 14.464,7.542 15.354,7.701" style="fill:none;stroke:currentColor;stroke-width:0.52px;"/>
        </g>
        <g transform="matrix(1.20779,0,0,1.20779,-2.27717,-0.994879)">
            <path d="M15.359,7.677C15.433,7.683 16.203,8.944 16.224,9.151" style="fill:none;stroke:currentColor;stroke-width:0.52px;"/>
        </g>
        <g transform="matrix(1.20779,0,0,1.20779,-2.27717,-0.994879)">
            <path d="M16.273,9.108C17.439,9.626 18.606,9.775 19.291,9.787" style="fill:none;stroke:currentColor;stroke-width:0.52px;"/>
        </g>
        <g transform="matrix(1.20779,0,0,1.20779,-2.27717,-0.994879)">
            <path d="M9.275,3.781C10.059,6.599 10.036,11.075 9.876,13.737" style="fill:none;stroke:currentColor;stroke-width:0.52px;"/>
        </g>
        <g transform="matrix(1.20779,0,0,1.20779,-2.27717,-0.994879)">
            <path d="M7.386,12.193C7.382,11.735 7.403,11.148 7.403,10.551" style="fill:none;stroke:currentColor;stroke-width:0.52px;"/>
        </g>
        <g transform="matrix(1.20779,0,0,1.20779,-2.27717,-0.994879)">
            <path d="M5.39,10.454C7.273,12.236 7.576,12.364 9.59,13.982" style="fill:none;stroke:currentColor;stroke-width:0.52px;"/>
        </g>
        <g transform="matrix(1.20779,0,0,1.20779,-2.27717,-0.994879)">
            <path d="M4.288,13.573C4.477,13.63 5.037,14.113 6.585,14.987" style="fill:none;stroke:currentColor;stroke-width:0.52px;"/>
        </g>
        <g transform="matrix(1.20779,0,0,1.20779,-2.27717,-0.994879)">
            <path d="M6.592,14.984C6.991,15.545 7.279,16.094 7.332,16.194" style="fill:none;stroke:currentColor;stroke-width:0.52px;"/>
        </g>
        <g transform="matrix(1.20779,0,0,1.20779,-2.27717,-0.994879)">
            <path d="M6.592,14.961C6.651,14.957 7.947,15.036 8.395,14.971" style="fill:none;stroke:currentColor;stroke-width:0.52px;"/>
        </g>
        <g transform="matrix(1.20779,0,0,1.20779,-2.27717,-0.994879)">
            <path d="M8.203,18.958C7.815,18.455 7.335,16.632 7.331,16.101" style="fill:none;stroke:currentColor;stroke-width:0.52px;"/>
        </g>
        <g transform="matrix(1.20779,0,0,1.20779,-2.27717,-0.994879)">
            <path d="M10.061,19.852C9.684,18.903 9.567,18.362 9.166,16.922" style="fill:none;stroke:currentColor;stroke-width:0.52px;"/>
        </g>
        <g transform="matrix(1.20779,0,0,1.20779,-2.27717,-0.994879)">
            <path d="M14.05,19.95C13.664,18.589 12.656,15.153 12.608,14.472" style="fill:none;stroke:currentColor;stroke-width:0.52px;"/>
        </g>
        <g transform="matrix(1.20779,0,0,1.20779,-2.27717,-0.994879)">
            <path d="M14.315,18.217C14.444,17.146 14.604,15.904 14.691,15.14" style="fill:none;stroke:currentColor;stroke-width:0.52px;"/>
        </g>
        <g transform="matrix(1.20779,0,0,1.20779,-2.27717,-0.994879)">
            <path d="M13.646,12.629C13.971,13.177 14.295,14.288 14.692,15.111" style="fill:none;stroke:currentColor;stroke-width:0.52px;"/>
        </g>
        <g transform="matrix(1.20779,0,0,1.20779,-2.27717,-0.994879)">
            <path d="M14.55,14.765C15.226,12.266 15.399,11.73 16.158,9.243" style="fill:none;stroke:currentColor;stroke-width:0.52px;"/>
        </g>
        <g transform="matrix(1.20779,0,0,1.20779,-2.27717,-0.994879)">
            <path d="M12.43,12.187C12.311,11.316 12.251,8.818 12.376,7.195" style="fill:none;stroke:currentColor;stroke-width:0.52px;"/>
        </g>
        <g transform="matrix(1.20779,0,0,1.20779,-2.27717,-0.994879)">
            <path d="M13.494,6.683C12.898,5.45 12.414,3.506 12.475,1.834" style="fill:none;stroke:currentColor;stroke-width:0.52px;"/>
        </g>
    </g>
</svg>
